<?xml version="1.0" encoding="UTF-8" standalone="no"?>
<!-- Created with Inkscape (http://www.inkscape.org/) -->

<svg
   width="100mm"
   height="40mm"
   viewBox="0 0 100 40"
   version="1.1"
   id="svg1"
   xml:space="preserve"
   inkscape:version="1.3.2 (091e20e, 2023-11-25, custom)"
   sodipodi:docname="logo.svg"
   xmlns:inkscape="http://www.inkscape.org/namespaces/inkscape"
   xmlns:sodipodi="http://sodipodi.sourceforge.net/DTD/sodipodi-0.dtd"
   xmlns="http://www.w3.org/2000/svg"
   xmlns:svg="http://www.w3.org/2000/svg"><sodipodi:namedview
     id="namedview1"
     pagecolor="#ffffff"
     bordercolor="#000000"
     borderopacity="0.25"
     inkscape:showpageshadow="2"
     inkscape:pageopacity="0.0"
     inkscape:pagecheckerboard="0"
     inkscape:deskcolor="#d1d1d1"
     inkscape:document-units="mm"
     inkscape:zoom="2.8284271"
     inkscape:cx="187.02974"
     inkscape:cy="164.93266"
     inkscape:window-width="3840"
     inkscape:window-height="2071"
     inkscape:window-x="-9"
     inkscape:window-y="-9"
     inkscape:window-maximized="1"
     inkscape:current-layer="layer1"
     showguides="true"><sodipodi:guide
       position="37.160486,14.43901"
       orientation="0,-1"
       id="guide30"
       inkscape:locked="false" /><sodipodi:guide
       position="68.708313,29.382717"
       orientation="0,-1"
       id="guide31"
       inkscape:locked="false" /></sodipodi:namedview><defs
     id="defs1" /><g
     inkscape:label="Layer 1"
     inkscape:groupmode="layer"
     id="layer1"><path
       id="path1-8"
       style="font-size:50.8px;font-family:'Lemon Jelly Personal Use';-inkscape-font-specification:'Lemon Jelly Personal Use';display:none;fill:#5f5d5d;stroke:none;stroke-width:1.9798;stroke-linecap:round;stroke-linejoin:round"
       d="M 17.385145,0.0023002 C 15.219112,0.03603042 13.236422,0.32262282 11.436945,0.86224968 9.670794,1.4018765 8.1543777,2.110269 6.8880806,2.9871643 5.6551057,3.8640595 4.7385488,4.8757512 4.1387249,6.0224624 3.538899,7.1354463 3.355793,8.2990445 3.5890578,9.5132092 3.7890004,10.525013 4.1887371,11.435948 4.788564,12.24539 c 0.63315,0.809441 1.3495782,1.567951 2.1493478,2.276216 0.8330906,0.674534 1.6996137,1.315584 2.5993516,1.922664 0.9330616,0.607084 1.7830756,1.19698 2.5495196,1.770333 0.766442,0.573357 1.416334,1.163767 1.949513,1.770848 0.533179,0.573358 0.816343,1.180472 0.849671,1.821287 0.03333,0.539594 -0.05023,1.062178 -0.250173,1.568082 -0.166618,0.472173 -0.466294,0.893965 -0.899501,1.264958 -0.399883,0.370992 -0.933208,0.674296 -1.599679,0.910387 -0.666472,0.202362 -1.466456,0.303632 -2.3995182,0.303632 -1.3329452,0 -2.4155904,-0.252663 -3.248681,-0.758566 C 5.6553212,24.589327 5.0719708,23.982213 4.7387318,23.273948 4.4388198,22.565683 4.405296,21.823369 4.6385608,21.047653 4.8718285,20.238202 5.4216589,19.530332 6.2880726,18.923251 4.7551848,18.788343 3.5559698,18.821758 2.6895561,19.024119 c -0.8664148,0.202362 -1.499801,0.488954 -1.89968424,0.85995 -0.43320836,0.370998 -0.68336492,0.77608 -0.75000918,1.214533 -0.06664427,0.438453 -0.04963143,0.826306 0.05033988,1.163578 0.26658984,1.3828 1.23266794,2.563109 2.89884924,3.541186 1.6661823,0.978077 3.9155359,1.46721 6.7480452,1.46721 1.366268,0 2.666051,-0.168611 3.899026,-0.505884 1.232973,-0.337272 2.299619,-0.809694 3.199357,-1.416779 0.933061,-0.607084 1.632475,-1.315468 2.099005,-2.124914 0.499854,-0.843176 0.666453,-1.753623 0.499837,-2.731661 C 19.301026,19.648153 18.934813,18.838502 18.334988,18.062787 17.768486,17.287073 17.068564,16.561972 16.235473,15.887438 15.435706,15.212905 14.585691,14.555663 13.685954,13.914856 12.786215,13.274044 11.93671,12.649705 11.136943,12.042625 10.3705,11.401817 9.7041005,10.777989 9.1375987,10.170909 8.60442,9.5301012 8.2877283,8.8723448 8.187757,8.197811 8.0544616,7.354638 8.204553,6.5282714 8.6377628,5.7188296 9.1042933,4.8756606 9.7371687,4.1338585 10.536937,3.493047 11.336704,2.8522394 12.269764,2.3291689 13.33612,1.92445 c 1.066355,-0.4047229 2.149508,-0.5900479 3.249188,-0.5563177 1.266296,0.06745 2.099297,0.3879793 2.499179,0.9613324 0.399883,0.5733531 0.616511,1.2478172 0.649838,2.0235317 0,0.4721764 -0.133076,0.9446057 -0.399666,1.4167821 -0.233264,0.4721723 -0.58348,0.9440898 -1.050011,1.4162661 -0.466529,0.4721764 -1.016362,0.9273831 -1.649509,1.3658332 -0.599826,0.4384461 -1.249717,0.8263129 -1.949513,1.1635822 1.499563,0.708261 2.8829,0.97815 4.149197,0.809516 1.299623,-0.202362 2.415789,-0.6236432 3.34885,-1.2644508 C 23.116735,8.5859914 23.80015,7.7930343 24.233356,6.8824118 24.699884,5.9717894 24.866486,5.1454227 24.733193,4.4034304 24.433279,2.8520004 23.699835,1.7223306 22.533507,1.0140655 21.367181,0.30580451 19.651153,-0.03143003 17.385145,0.0023002 Z m 56.361381,4.3043802 c -0.447086,-0.00448 -0.878695,0.053478 -1.088654,0.1476989 -0.399886,0.134908 -0.683062,0.4047976 -0.849678,0.8095155 -0.299914,0.6408115 -0.686801,1.5790685 -0.999671,2.4784665 -0.260328,0.7483559 -0.713394,2.1290316 -0.713394,2.1290316 0,0 0.09308,-0.024449 0.211022,-9.959e-4 0.117945,0.023393 0.168266,0.081223 0.197293,0.095723 0.403946,-0.6375593 1.001284,-1.0423877 1.702382,-1.1872584 0.587607,-0.1550017 2.286637,-0.044775 2.286637,-0.044775 0,0 0.982838,-3.5240597 1.012387,-3.6827043 0.03218,-0.172937 -0.167767,-0.399058 -0.783565,-0.6082939 -0.26942,-0.091541 -0.626532,-0.1328634 -0.974248,-0.1363769 z m -1.313915,4.991928 c -0.03641,0.00309 -0.0796,0.00976 -0.129667,0.020067 -0.549429,0.1135315 -1.020603,0.4803305 -1.350006,1.0513936 -0.16063,0.278479 -0.273413,0.562002 -0.380853,0.955671 -0.07645,0.280332 -0.119847,0.354538 -0.232371,0.399354 -0.129294,0.05149 -0.272215,-0.01469 -0.328479,-0.152331 -0.02125,-0.05208 -0.02224,-0.07084 -0.0089,-0.183209 0.01623,-0.144056 0.08629,-0.381342 0.187121,-0.641231 0.07006,-0.180663 0.07527,-0.222546 0.02903,-0.237759 -0.05864,-0.0193 -0.225673,0.189717 -0.420004,0.525953 -0.168839,0.292127 -0.289405,0.577028 -0.383906,0.905752 -0.0858,0.298754 -0.0858,0.400951 0.003,0.450303 0.05382,0.02985 0.07606,0.03025 0.261864,0.0052 0.282564,-0.03825 0.765434,-0.07266 0.905089,-0.06432 0.30671,0.01826 0.46694,0.308187 0.298989,0.541392 -0.07931,0.110086 -0.193173,0.14518 -0.52831,0.163653 -0.268486,0.01476 -0.638603,0.05931 -0.794248,0.09521 -0.318163,0.0734 -0.525624,0.240419 -0.604577,0.486841 -0.04625,0.144511 -0.02765,0.253178 0.05087,0.301575 0.04093,0.02524 0.167245,0.02306 0.514072,-0.0083 0.636015,-0.05734 0.802729,-0.04212 0.929491,0.08492 0.156028,0.15639 0.123606,0.40462 -0.0676,0.518749 -0.07212,0.04299 -0.201809,0.06619 -0.405254,0.07153 -0.363673,0.0095 -0.692552,0.0424 -0.90255,0.09057 -0.229167,0.05256 -0.393576,0.160553 -0.479486,0.314954 -0.117938,0.211986 -0.125761,0.370178 -0.02234,0.449789 0.05077,0.03881 0.11355,0.04294 0.331526,0.02213 0.249387,-0.02363 0.473424,-0.03247 0.711358,-0.02728 0.19765,0.0043 0.221688,0.0074 0.298986,0.03602 0.16266,0.06074 0.246346,0.19078 0.225762,0.349949 -0.01624,0.124795 -0.08501,0.218215 -0.197286,0.267609 -0.08846,0.039 -0.146589,0.04561 -0.484582,0.05197 -0.379869,0.0073 -0.488775,0.01374 -0.674742,0.04169 -0.388314,0.0581 -0.546995,0.157671 -0.659503,0.414794 -0.03326,0.07587 -0.04497,0.120384 -0.04979,0.191443 -0.0089,0.113375 0.01545,0.161069 0.09761,0.198648 0.05835,0.0266 0.07478,0.02743 0.409319,0.01287 0.246403,-0.01072 0.734215,-0.0061 0.832885,0.0083 0.112615,0.01637 0.192779,0.0598 0.25475,0.138436 0.139113,0.176425 0.07616,0.417396 -0.132708,0.508456 -0.07203,0.03133 -0.154405,0.04017 -0.377291,0.04065 -0.908158,0.0018 -1.148365,0.03949 -1.323571,0.207912 -0.10106,0.09711 -0.179138,0.265053 -0.187118,0.402442 -0.0059,0.101069 0.01456,0.157956 0.07222,0.199162 0.05245,0.0374 0.158397,0.04581 0.531872,0.04323 0.134722,-9.64e-4 0.371347,0.0049 0.525762,0.01287 0.253881,0.01341 0.28707,0.0174 0.345252,0.04323 0.230826,0.102555 0.288566,0.389743 0.110854,0.549627 -0.103386,0.09298 -0.171978,0.10522 -0.552712,0.09881 -0.454601,-0.0077 -0.787163,0.0014 -0.948827,0.02573 -0.264481,0.03982 -0.426019,0.189274 -0.494746,0.458022 -0.03237,0.126767 -0.02194,0.211429 0.03355,0.27224 0.06081,0.06677 0.08688,0.07364 0.321866,0.08234 0.117535,0.005 0.403078,0.02019 0.634586,0.03397 0.413451,0.02482 0.422356,0.02699 0.491696,0.05867 0.140803,0.06683 0.216874,0.185759 0.208481,0.326276 -0.0059,0.09879 -0.04979,0.183819 -0.124066,0.240852 -0.103494,0.07957 -0.108079,0.07976 -0.719505,0.05506 -0.754591,-0.03057 -0.91221,-0.03096 -0.991537,-5.18e-4 -0.134568,0.05139 -0.200888,0.147728 -0.275591,0.399355 -0.107476,0.36215 -0.230147,0.805751 -0.261359,0.945891 -0.0921,0.413476 -0.100561,0.827839 -0.02234,1.140942 0.180637,0.724288 0.761321,1.324003 1.810185,1.869662 0.486196,0.252942 0.90333,0.438623 1.368823,0.608807 0.181038,0.06613 0.353331,0.130838 0.382889,0.143585 0.07281,0.03137 0.136221,0.105165 0.144408,0.167765 0.0069,0.05089 -0.03139,0.254615 -0.147458,0.795623 -0.03168,0.148017 -0.09121,0.429072 -0.132718,0.624243 -0.04133,0.195162 -0.105029,0.489333 -0.141354,0.6541 -0.102775,0.466009 -0.118529,0.545619 -0.13932,0.716879 -0.02234,0.184506 -0.02253,0.425636 -0.003,0.569699 0.07891,0.551744 0.43441,1.059978 0.954917,1.364287 0.315635,0.184543 0.710905,0.288114 1.055098,0.276871 l 0.002,-9.96e-4 c 0.553945,-0.01842 1.001208,-0.291082 1.249336,-0.762688 0.06435,-0.122432 0.129786,-0.290785 0.310689,-0.796131 0.404431,-1.129718 0.901011,-2.500597 0.926446,-2.558746 0.03788,-0.08604 0.08256,-0.138805 0.143394,-0.165714 0.04192,-0.01852 0.0739,-0.01991 0.217625,-0.01184 1.307941,0.07748 2.145526,-0.249685 2.748335,-1.073521 0.218727,-0.298902 0.466982,-0.841015 0.566963,-1.238199 0.04457,-0.177176 0.01338,-0.279163 -0.121018,-0.392155 -0.218126,-0.183589 -0.797527,-0.541267 -1.362217,-0.840906 -0.162985,-0.08654 -0.325291,-0.179028 -0.360517,-0.205847 -0.15039,-0.114445 -0.197699,-0.295993 -0.11543,-0.441042 0.07173,-0.126426 0.194512,-0.184157 0.350343,-0.164687 0.0739,0.008 0.116954,0.02589 0.277125,0.106528 0.209261,0.105423 0.72616,0.39584 0.947297,0.532135 0.425596,0.262313 0.451593,0.276096 0.516624,0.27996 0.143128,0.008 0.21541,-0.08266 0.283727,-0.357668 0.03041,-0.122632 0.03149,-0.148405 0.01171,-0.232098 -0.02214,-0.0955 -0.104468,-0.182305 -0.352379,-0.371053 -0.328744,-0.250282 -0.622518,-0.433931 -1.230523,-0.769889 -0.27314,-0.150935 -0.342067,-0.207032 -0.390006,-0.31856 -0.07144,-0.166301 0.01761,-0.368095 0.191185,-0.433832 0.0735,-0.02778 0.192917,-0.0202 0.282213,0.01904 0.196567,0.08375 0.992048,0.547511 1.284926,0.749305 0.223912,0.15429 0.289897,0.189096 0.365092,0.193498 0.106515,0.006 0.174832,-0.06593 0.232375,-0.245991 0.04575,-0.143276 0.05451,-0.281543 0.02391,-0.362299 -0.04359,-0.112882 -0.20133,-0.265878 -0.532386,-0.515663 -0.242618,-0.183071 -0.493579,-0.344582 -0.92441,-0.595943 -0.377185,-0.220033 -0.440474,-0.269233 -0.487124,-0.37774 -0.05491,-0.128028 -0.03345,-0.253759 0.06101,-0.353037 0.09883,-0.103927 0.252604,-0.125433 0.420007,-0.05918 0.04457,0.01766 0.256501,0.135151 0.471361,0.261433 0.38426,0.225843 0.623965,0.38057 0.867468,0.559405 0.170531,0.125253 0.218765,0.151784 0.283727,0.156448 0.07065,0.0056 0.128546,-0.02124 0.170345,-0.07771 0.04644,-0.06286 0.09485,-0.220066 0.10373,-0.337085 0.01112,-0.140025 -0.02096,-0.212476 -0.164244,-0.373108 -0.260565,-0.292344 -0.723916,-0.635039 -1.36883,-1.012795 -0.300573,-0.176064 -0.378661,-0.24142 -0.422546,-0.353552 -0.06297,-0.160661 0.01446,-0.349092 0.172884,-0.419939 0.06829,-0.03063 0.182861,-0.03156 0.264924,-0.0021 0.09525,0.03426 0.596502,0.327811 0.862882,0.505369 0.126263,0.08412 0.33511,0.233081 0.464247,0.330908 0.129116,0.09783 0.252191,0.186064 0.273563,0.196074 0.02293,0.01066 0.06494,0.01739 0.102205,0.01595 0.05461,-0.0017 0.07055,-0.0093 0.112369,-0.04941 0.05884,-0.05676 0.09171,-0.140617 0.108817,-0.276872 0.01663,-0.133699 0.002,-0.20941 -0.06406,-0.323188 -0.06406,-0.11045 -0.278611,-0.350443 -0.447972,-0.500737 -0.212862,-0.188871 -0.575681,-0.441178 -1.039839,-0.723573 -0.257584,-0.156717 -0.331736,-0.220422 -0.376792,-0.323703 -0.06789,-0.156012 0.0069,-0.352323 0.157632,-0.420454 0.07783,-0.03486 0.145096,-0.04032 0.231872,-0.02007 0.0611,0.01428 0.139055,0.054 0.350845,0.179607 0.413041,0.244906 0.78324,0.501019 1.077476,0.745701 0.0735,0.06112 0.157317,0.125278 0.18661,0.142553 0.11786,0.06955 0.221531,0.04676 0.284751,-0.0633 0.03198,-0.05568 0.0737,-0.203243 0.07783,-0.274298 0.01161,-0.192708 -0.126155,-0.404717 -0.474411,-0.732322 -0.276643,-0.260246 -0.591356,-0.496882 -1.017464,-0.764743 -0.259817,-0.163327 -0.320942,-0.206078 -0.372718,-0.260403 -0.214781,-0.225379 -0.05874,-0.581165 0.247124,-0.564036 0.09653,0.0054 0.191933,0.04895 0.423559,0.194016 0.548977,0.343884 0.865185,0.580138 1.203572,0.898547 0.06671,0.06281 0.140049,0.120332 0.162719,0.128143 0.06317,0.02169 0.120114,-0.0033 0.152535,-0.06742 0.05166,-0.102021 0.14552,-0.555415 0.178483,-0.860465 0.05186,-0.47908 -0.02617,-0.97926 -0.243051,-1.572715 -0.11844,-0.323377 -0.274084,-0.614607 -0.477973,-0.8934 -0.618218,-0.845317 -1.809441,-1.74119 -3.197832,-2.4053887 -0.299097,-0.1430824 -0.39409,-0.1736826 -0.578141,-0.1847537 -0.436066,-0.026172 -0.830166,0.089519 -1.109505,0.3257624 -0.13873,0.117346 -0.240512,0.240807 -0.340178,0.413249 -0.128211,0.221849 -0.220812,0.469579 -0.31424,0.838335 -0.05382,0.212422 -0.08521,0.28154 -0.156107,0.345318 -0.16699,0.150234 -0.453443,0.08275 -0.54509,-0.128657 -0.05451,-0.125791 -0.03316,-0.294986 0.09407,-0.734895 0.105865,-0.366679 0.258735,-0.693542 0.433232,-0.9268515 0.08167,-0.1092672 0.17495,-0.202952 0.341693,-0.3437744 0.0676,-0.057093 0.08088,-0.074402 0.08285,-0.1091019 0.0049,-0.072211 -0.02873,-0.085456 -0.218638,-0.088513 -0.204921,-0.00339 -0.356571,0.014131 -0.545601,0.063815 -0.320144,0.084042 -0.55673,0.211884 -0.802388,0.4338343 -0.202284,0.1827765 -0.309547,0.3174435 -0.453049,0.5686675 -0.140973,0.246777 -0.236901,0.485728 -0.338653,0.840909 -0.0432,0.150974 -0.0921,0.295066 -0.111867,0.330394 -0.0858,0.154052 -0.261195,0.199857 -0.415934,0.108587 -0.156038,-0.09204 -0.181917,-0.247743 -0.09554,-0.572271 0.141702,-0.532836 0.348739,-0.967039 0.609156,-1.2778301 0.09249,-0.1102542 0.244664,-0.2517478 0.429159,-0.3983254 0.05992,-0.047613 0.0734,-0.064861 0.07527,-0.097267 0.003,-0.057761 -0.04625,-0.081313 -0.155595,-0.072051 z M 62.646953,10.57541 c -1.766145,-0.03373 -3.3661,0.438705 -4.799007,1.416781 -1.399592,0.94435 -2.565787,2.124659 -3.49884,3.541181 -0.489276,0.751975 -0.892297,1.531499 -1.223902,2.333341 -0.408436,0.520698 -0.816997,1.049829 -1.22543,1.562421 -0.799769,1.011813 -1.49969,1.838169 -2.099518,2.478984 -0.5665,0.640814 -0.982747,0.978007 -1.249337,1.011767 -0.266586,0.03376 -0.283103,-0.421991 -0.04983,-1.366348 0.399885,-1.416535 0.74959,-2.630249 1.049504,-3.642052 0.333238,-1.011803 0.599897,-1.872102 0.799839,-2.580363 0.199943,-0.741989 0.333022,-1.365812 0.399666,-1.871716 0.06664,-0.5059 0.05014,-0.944404 -0.04983,-1.315399 -0.199943,-0.94435 -0.81631,-1.416781 -1.849343,-1.416781 -0.333234,0 -0.699958,0.101271 -1.099843,0.303633 -0.399885,0.168634 -0.883178,0.505862 -1.449678,1.011766 -0.53318,0.505899 -1.166055,1.180363 -1.899174,2.023532 -0.699795,0.843169 -1.533304,1.888789 -2.499689,3.136681 l 1.549847,-5.918781 c 0.03333,-0.134908 -0.116767,-0.270106 -0.450005,-0.405014 -0.299912,-0.134908 -0.683145,-0.218955 -1.149674,-0.252685 -0.433209,-0.03373 -0.866466,0.03362 -1.299676,0.202251 -0.399881,0.134908 -0.683052,0.404796 -0.84967,0.809515 -0.433206,0.978076 -0.832944,2.006475 -1.199506,3.085732 -0.338031,0.964155 -0.658456,1.946742 -0.968146,2.939577 -0.309779,0.386252 -0.626991,0.772184 -0.981367,1.158436 -0.433209,0.472176 -0.899991,0.893969 -1.399847,1.264965 -0.499853,0.337273 -0.982637,0.505884 -1.449169,0.505884 0.666471,-1.079266 1.149259,-2.209443 1.449169,-3.38988 0.333241,-1.180438 0.433299,-2.259473 0.300003,-3.237549 -0.133303,-0.978076 -0.516522,-1.770515 -1.149674,-2.377599 -0.633148,-0.640808 -1.566212,-0.961332 -2.799184,-0.961332 -1.599537,0 -3.032394,0.370646 -4.298693,1.112634 -1.266298,0.741988 -2.332434,1.66963 -3.198848,2.782614 -0.83309,1.112984 -1.449966,2.327219 -1.849851,3.642564 -0.399881,1.281614 -0.532961,2.479139 -0.399665,3.592127 0.133294,1.112988 0.550049,2.040106 1.249844,2.782101 0.699795,0.741995 1.7159,1.113147 3.048847,1.113147 1.266298,0 2.432495,-0.303333 3.498852,-0.910377 1.066356,-0.607085 2.01643,-1.400039 2.849525,-2.378116 0.966385,0.03376 1.999507,-0.236161 3.099187,-0.809515 0.333238,-0.168631 0.69945,-0.421294 1.099335,-0.758567 0.05098,-0.04362 0.09948,-0.09491 0.150001,-0.13998 -0.03025,0.127741 -0.07096,0.265978 -0.100171,0.392663 -0.233262,0.978077 -0.432879,1.872302 -0.599498,2.681747 -0.133295,0.573354 -0.05025,1.011339 0.249665,1.314882 0.266586,0.303542 0.649817,0.472123 1.149674,0.505883 0.766442,0.03376 1.383322,-0.134891 1.849851,-0.505883 0.466532,-0.370993 0.899791,-1.298121 1.299676,-2.782102 l 0.499836,-1.922662 c 0.566504,-0.741989 1.215887,-1.551138 1.949006,-2.428033 0.766442,-0.876895 1.416336,-1.585284 1.949513,-2.124915 0.366561,-0.370988 0.633222,-0.506195 0.79984,-0.405014 0.199939,0.10118 0.233466,0.371069 0.10017,0.809515 -0.466528,1.382799 -0.866775,2.715013 -1.200013,3.996631 -0.29991,1.247904 -0.483023,2.411492 -0.549668,3.490749 -0.03333,0.404723 0.08324,0.759175 0.349835,1.062717 0.299914,0.303542 0.650131,0.522783 1.050012,0.657694 0.433209,0.134941 0.866467,0.185063 1.299676,0.151303 0.466529,-0.03376 0.882775,-0.185123 1.249336,-0.454934 0.633148,-0.438454 1.182982,-0.876947 1.64951,-1.3154 0.499857,-0.438453 0.983149,-0.910875 1.449678,-1.416779 0.332047,-0.360068 0.682787,-0.77696 1.031704,-1.188286 -0.124729,1.04027 -0.07301,1.978482 0.167806,2.807317 0.133289,0.472174 0.416452,0.860036 0.849662,1.163579 0.433202,0.303542 1.016552,0.455452 1.749676,0.455452 0.666469,0 1.382891,-0.219251 2.149332,-0.657704 0.766437,-0.472174 1.499374,-1.028648 2.19916,-1.669462 l -1.722715,6.266671 c -0.799765,0.337273 -1.632761,0.759065 -2.49917,1.264968 -0.96638,0.539637 -1.566234,1.096111 -1.799504,1.669465 -0.233257,0.607085 -0.233257,1.163559 0,1.669462 0.266597,0.505904 0.716356,0.910478 1.349498,1.21402 0.633149,0.303542 1.29955,0.455452 1.999336,0.455452 0.733111,0 1.449536,-0.20255 2.149332,-0.607273 0.699793,-0.370953 1.266636,-1.028737 1.699845,-1.973094 0.342854,-1.077614 0.670582,-2.15989 1.008307,-3.239091 1.038791,0.496652 1.672139,1.601447 2.140693,3.213358 0.33024,1.136132 0.557859,2.74609 1.084073,4.130952 0.263103,0.69243 0.604617,1.341301 1.122211,1.840323 C 66.396955,39.678194 67.108578,40 67.943766,40 c 0.976898,0 1.704669,-0.70948 2.186969,-1.552128 0.482289,-0.842648 0.79942,-1.888743 1.031696,-2.923625 0.464561,-2.069753 0.612718,-3.763505 0.612718,-3.763505 0,0 -0.206122,0.05866 -0.575091,-9.95e-4 -0.368956,-0.06005 -0.591353,-0.200709 -0.591353,-0.200709 0,0 -0.162109,1.761551 -0.597464,3.701233 -0.217671,0.969841 -0.52276,1.927702 -0.901025,2.588593 -0.378264,0.660891 -0.748424,0.955162 -1.16645,0.955162 -0.559738,0 -0.920173,-0.172585 -1.249328,-0.48993 -0.329157,-0.317345 -0.609123,-0.807514 -0.835938,-1.40443 -0.453637,-1.193853 -0.682715,-2.764186 -1.053058,-4.038316 -0.526746,-1.812121 -1.370897,-3.359153 -2.916114,-4.022882 1.490036,-4.785619 2.951753,-9.580198 4.406465,-14.377266 0.03336,-0.06745 -0.03326,-0.1348 -0.199832,-0.202251 -0.166615,-0.06745 -0.383246,-0.135314 -0.64983,-0.202765 0.599825,-0.573353 0.832964,-1.179959 0.699668,-1.820766 -0.133298,-0.573354 -0.550046,-0.995151 -1.249842,-1.264966 -0.666469,-0.269811 -1.415904,-0.405014 -2.248998,-0.405014 z m 24.057173,0.202765 c -0.434491,0 -0.866464,0.01691 -1.299676,0.151815 -0.433212,0.134908 -0.733392,0.404279 -0.900007,0.809002 -0.833098,1.888699 -1.599551,3.878668 -2.29935,5.969728 -0.6998,2.057335 -1.099527,4.047298 -1.199499,5.969731 -0.03336,0.404723 0.08324,0.759175 0.349831,1.062717 0.266587,0.303542 0.599789,0.522783 0.999674,0.657694 0.399885,0.134941 0.833147,0.185063 1.299676,0.151303 0.46653,-0.03376 0.866277,-0.185123 1.199498,-0.454934 1.033021,-0.708266 1.899573,-1.433351 2.599353,-2.175346 0.699799,-0.741995 1.499796,-1.652921 2.399518,-2.732183 -0.166596,0.573359 -0.283216,1.163762 -0.349831,1.770847 -0.06661,0.573354 -0.116639,1.146548 -0.149996,1.719902 -0.03336,0.404723 0.08324,0.759175 0.349831,1.062717 0.266587,0.303542 0.599788,0.522783 0.999673,0.657694 0.433213,0.134941 0.882977,0.185063 1.349507,0.151303 0.466529,-0.03376 0.866769,-0.185123 1.20001,-0.454934 0.633155,-0.438454 1.182987,-0.876947 1.649517,-1.3154 0.499861,-0.438453 0.982646,-0.910875 1.449175,-1.416779 0.46653,-0.505903 0.949816,-1.062387 1.449673,-1.669472 0.499857,-0.640792 1.083205,-1.365898 1.749677,-2.175344 0.23327,-0.303538 0.366302,-0.590135 0.399659,-0.85995 0.06661,-0.269815 0.06661,-0.505772 0,-0.708133 -0.06661,-0.202358 -0.149691,-0.354268 -0.249663,-0.455449 -0.09997,-0.134908 -0.149996,-0.218954 -0.149996,-0.252684 -0.833098,1.079257 -1.666079,2.141584 -2.499177,3.187114 -0.79977,1.011813 -1.499687,1.838169 -2.09952,2.478984 -0.566501,0.640814 -0.983261,0.978007 -1.249848,1.011767 -0.266587,0.03376 -0.283216,-0.421991 -0.04979,-1.366348 l 2.999026,-10.168612 c 0.03336,-0.134908 -0.116767,-0.269593 -0.450008,-0.404501 -0.299914,-0.13491 -0.666118,-0.202249 -1.099331,-0.202249 -0.433217,-0.03373 -0.866469,0.01691 -1.299681,0.151815 -0.433212,0.134908 -0.733402,0.404279 -0.900017,0.809002 -0.366558,0.775715 -0.716261,1.568672 -1.049502,2.378113 -0.333241,0.775715 -0.649924,1.584864 -0.949838,2.428033 -0.79977,1.04553 -1.582774,2.074444 -2.349178,3.086247 -0.766443,0.978074 -1.432847,1.77051 -1.999348,2.377595 -0.5665,0.607084 -0.983261,0.927576 -1.249848,0.961336 -0.233269,0 -0.233269,-0.472422 0,-1.416779 l 2.999022,-10.168612 c 0.03336,-0.134908 -0.116256,-0.269593 -0.449497,-0.404501 -0.299914,-0.13491 -0.683151,-0.202249 -1.14968,-0.202249 z m -55.44815,0.859949 c 0.26659,0 0.449696,0.168617 0.549668,0.505883 0.133294,0.303542 0.183328,0.725338 0.150001,1.264965 -0.03333,0.539631 -0.133385,1.146233 -0.300003,1.820767 -0.133296,0.674538 -0.316401,1.382926 -0.549668,2.124914 -0.266589,-0.202361 -0.58328,-0.303632 -0.949841,-0.303632 -0.333238,0 -0.649928,0.101271 -0.949842,0.303632 -0.266586,0.168635 -0.483222,0.421814 -0.649837,0.759083 -0.133298,0.303538 -0.149811,0.674187 -0.04983,1.112633 0.199939,0.775717 0.54965,1.41676 1.049503,1.922664 -0.466529,0.775716 -0.932809,1.43347 -1.399338,1.973104 -0.466532,0.539594 -0.933318,0.809515 -1.399845,0.809515 -0.566504,0 -0.932717,-0.303821 -1.099335,-0.910905 -0.166616,-0.607084 -0.200141,-1.365591 -0.10017,-2.276218 0.133291,-0.910607 0.383447,-1.888895 0.750008,-2.934426 0.399885,-1.079257 0.849653,-2.074241 1.349505,-2.984864 0.533181,-0.910622 1.116022,-1.669647 1.749174,-2.276731 0.633148,-0.607081 1.250027,-0.910384 1.849851,-0.910384 z m 31.465719,0.05043 c 0.183284,0.01686 0.325124,0.0842 0.425092,0.20225 0.233299,0.236089 0.332847,0.455338 0.299491,0.6577 -0.133299,0.505903 -0.449475,0.944403 -0.949328,1.315399 -0.466527,0.370991 -1.133429,0.640881 -1.999841,0.809515 0.333241,0.33727 0.800014,0.505883 1.399839,0.505883 -0.733114,2.09106 -1.366502,4.06431 -1.899673,5.919297 -0.299911,0.337272 -0.633109,0.674495 -0.999667,1.011767 -0.366556,0.303543 -0.716265,0.573424 -1.049497,0.809516 -0.333238,0.202361 -0.616401,0.320303 -0.849661,0.354063 -0.23327,0.03376 -0.366851,-0.08425 -0.400178,-0.354063 -0.09997,-0.539634 -0.01643,-1.383218 0.250172,-2.529936 0.266586,-1.146707 0.64982,-2.310307 1.149664,-3.490744 0.53318,-1.214165 1.133035,-2.309906 1.799504,-3.287982 0.699793,-1.011803 1.416219,-1.618925 2.149339,-1.821282 0.266587,-0.08432 0.491473,-0.118246 0.674744,-0.101383 z m 9.32091,0.654098 c 0.06465,-4.27e-4 0.172028,0.0048 0.378307,0.01493 1.517134,0.07435 2.495554,0.325649 3.75717,0.964934 0.328961,0.166708 0.419958,0.236098 0.469836,0.358184 0.02863,0.07011 0.02509,0.187807 -0.0079,0.256801 -0.0919,0.18998 -0.285538,0.240219 -0.517125,0.133804 h -5.02e-4 c -0.0427,-0.01955 -0.163369,-0.08004 -0.267974,-0.133804 -0.735036,-0.377797 -1.408632,-0.609631 -2.13612,-0.735924 -0.349909,-0.06081 -0.583012,-0.08686 -1.198494,-0.133289 -0.566039,-0.04267 -0.580533,-0.04438 -0.649834,-0.07668 -0.09023,-0.042 -0.174369,-0.130228 -0.198821,-0.208425 -0.05687,-0.181921 0.04487,-0.35338 0.250175,-0.422513 0.03483,-0.01173 0.05638,-0.01759 0.121018,-0.01802 z m -0.458136,1.583007 c 0.05461,-0.0013 0.146257,0.0031 0.328479,0.01183 0.881331,0.04223 1.605307,0.168701 2.375105,0.414278 0.435515,0.138921 0.970637,0.359319 1.515274,0.624763 0.280156,0.136537 0.351622,0.191445 0.400683,0.30775 0.07586,0.179648 -0.03119,0.403222 -0.214575,0.448759 -0.07035,0.01744 -0.117102,0.01546 -0.198309,-0.0072 v 5.15e-4 c -0.03513,-0.0098 -0.197197,-0.08127 -0.360517,-0.158506 -1.28589,-0.607876 -2.066119,-0.816321 -3.485122,-0.93097 -0.401902,-0.03251 -0.472069,-0.04652 -0.563903,-0.114248 -0.09505,-0.07003 -0.136319,-0.160828 -0.129156,-0.284077 0.0079,-0.137991 0.08118,-0.23178 0.225261,-0.290252 0.03434,-0.01392 0.05215,-0.02131 0.10678,-0.02265 z m -0.369156,1.583521 c 0.04959,-5.03e-4 0.11971,0.0028 0.237452,0.0098 1.257198,0.07483 2.391252,0.379719 3.793773,1.019486 0.377923,0.172386 0.469127,0.237391 0.522724,0.371564 0.05363,0.1341 0.01378,0.282312 -0.100178,0.372078 -0.09604,0.07593 -0.206643,0.09114 -0.342205,0.04684 -0.03946,-0.01291 -0.200523,-0.08203 -0.357968,-0.15336 -0.559859,-0.253585 -1.146305,-0.478709 -1.557988,-0.598517 -0.673458,-0.196001 -1.021724,-0.26032 -1.924595,-0.355096 -0.310521,-0.03263 -0.374666,-0.0427 -0.427633,-0.0669 -0.139881,-0.06422 -0.2128,-0.171108 -0.214572,-0.313412 -4.03e-4,-0.07489 0.0039,-0.09347 0.03562,-0.151302 0.04812,-0.08662 0.122865,-0.142961 0.222709,-0.167769 0.03454,-0.0086 0.06337,-0.01288 0.112891,-0.01338 z m -0.489669,1.583522 0.298986,0.01956 c 0.771501,0.05011 1.65545,0.242089 2.57494,0.561978 0.292337,0.101697 0.970824,0.371028 1.262049,0.500737 0.407649,0.181564 0.503852,0.274498 0.492723,0.477578 -0.0079,0.144729 -0.09613,0.253324 -0.24001,0.295913 -0.09249,0.02734 -0.187584,0.01168 -0.352881,-0.05867 l -5.12e-4,-5.15e-4 c -0.0735,-0.0312 -0.240836,-0.102942 -0.372206,-0.159535 -0.554693,-0.238939 -1.210164,-0.473965 -1.698321,-0.60881 -0.611705,-0.168968 -0.91829,-0.224994 -1.779175,-0.324217 -0.08364,-0.0091 -0.181854,-0.02724 -0.218133,-0.03911 -0.206358,-0.0676 -0.312352,-0.269787 -0.23695,-0.451333 0.03414,-0.08213 0.09289,-0.138659 0.185596,-0.178062 z m -0.280176,1.590727 c 0.03847,0.0012 0.08442,0.0049 0.137805,0.0108 0.964583,0.106941 1.931195,0.354555 3.08545,0.79099 0.365181,0.138068 0.86426,0.343275 1.00425,0.412734 0.229009,0.113619 0.312695,0.313777 0.208985,0.499195 -0.09102,0.162825 -0.250971,0.208665 -0.469324,0.134831 -0.03641,-0.01235 -0.246927,-0.0965 -0.468311,-0.187326 -0.70403,-0.288508 -1.370295,-0.516661 -1.975958,-0.676226 -0.458658,-0.120813 -0.767132,-0.179764 -1.401367,-0.267609 -0.277634,-0.03839 -0.364213,-0.06681 -0.443393,-0.146155 -0.208877,-0.209372 -0.08354,-0.522537 0.227297,-0.567639 0.0248,-0.0037 0.05609,-0.0048 0.09456,-0.0036 z m -0.48101,1.603078 v 5.14e-4 c 0.115891,-0.0029 0.298369,0.01584 0.535424,0.05558 0.894632,0.14921 1.854317,0.427228 3.076299,0.891345 0.353609,0.134284 0.643851,0.252534 0.697634,0.284591 0.161883,0.0965 0.242047,0.245034 0.210511,0.389576 -0.01633,0.07449 -0.0859,0.167774 -0.156097,0.209452 -0.120005,0.0713 -0.205394,0.07133 -0.407295,-0.0021 v -5.08e-4 c -0.07803,-0.02818 -0.190496,-0.07122 -0.249662,-0.09572 -0.493864,-0.204313 -1.344969,-0.501701 -1.93782,-0.677254 -0.135945,-0.04023 -0.722864,-0.186208 -0.892891,-0.22181 -0.160505,-0.03356 -0.54917,-0.09869 -0.752035,-0.126088 -0.260129,-0.03515 -0.400305,-0.115979 -0.457631,-0.262462 -0.07016,-0.179068 0.04418,-0.385988 0.239997,-0.434859 0.02332,-0.0059 0.05491,-0.0094 0.09358,-0.0103 z m -2.371539,1.105426 c 0.07675,-0.008 0.153194,0.0219 0.208982,0.08544 0.0918,0.104717 0.09082,0.203945 -0.0049,0.626305 -0.100293,0.443711 -0.12746,0.618079 -0.146441,0.933024 -0.0126,0.209352 -0.01387,0.312923 -0.003,0.420975 0.01535,0.160505 0.07242,0.391388 0.129153,0.523372 0.08383,0.195071 0.255527,0.424042 0.452547,0.603668 0.09702,0.08833 0.120189,0.118499 0.103727,0.133288 -0.0186,0.01658 -0.06366,-4.78e-4 -0.157629,-0.05969 h -5.11e-4 c -0.22471,-0.140866 -0.417092,-0.308173 -0.590851,-0.513602 -0.268388,-0.317404 -0.401674,-0.662962 -0.430169,-1.115726 -0.02116,-0.335002 0.09171,-1.151449 0.196269,-1.419866 0.03149,-0.08067 0.106771,-0.169827 0.166271,-0.196596 0.02499,-0.01125 0.05067,-0.0179 0.07626,-0.02058 z m 1.349495,0.204313 h 5.12e-4 c 0.07026,9.96e-4 0.138759,0.03359 0.197286,0.09623 0.103395,0.110652 0.107656,0.203397 0.02539,0.573304 -0.09872,0.444359 -0.117909,0.56953 -0.138307,0.908834 -0.01476,0.24633 -0.01515,0.333727 -0.0039,0.433325 0.04103,0.342261 0.164155,0.61042 0.399154,0.867156 0.173956,0.190073 0.349771,0.325302 0.655429,0.503822 0.267895,0.156492 0.316491,0.197243 0.331526,0.27996 0.0039,0.0242 -0.002,0.04158 -0.02795,0.06896 -0.05097,0.05447 -0.116903,0.05788 -0.256774,0.01287 l 5.02e-4,-5.18e-4 c -0.134607,-0.04362 -0.319974,-0.133765 -0.555251,-0.270698 -0.625015,-0.363743 -0.966872,-0.755778 -1.101371,-1.262907 -0.100886,-0.380075 -0.08187,-0.861998 0.06051,-1.554189 0.07458,-0.362618 0.11969,-0.486305 0.206949,-0.567638 0.06465,-0.06025 0.136217,-0.08991 0.206443,-0.08851 z m 1.887973,0.328847 c 0.09564,0.006 0.165098,0.04392 0.230345,0.126606 0.05943,0.07549 0.08403,0.154489 0.07832,0.253708 -0.003,0.03984 -0.02972,0.183769 -0.06051,0.319586 -0.08679,0.381071 -0.117968,0.58152 -0.134754,0.873849 -0.01693,0.293264 -0.0069,0.438513 0.04379,0.616007 0.13632,0.48518 0.501057,0.829572 1.303229,1.229973 0.111228,0.05537 0.228015,0.116697 0.259325,0.136375 0.186344,0.117234 0.177754,0.314736 -0.01574,0.385981 -0.13684,0.05009 -0.272736,0.04207 -0.492211,-0.02934 h -5.01e-4 c -0.398006,-0.129483 -1.036583,-0.515872 -1.308825,-0.792018 -0.297159,-0.301421 -0.441278,-0.599416 -0.502884,-1.038526 -0.01801,-0.128398 -0.0182,-0.17614 -9.84e-4,-0.464197 0.01574,-0.26295 0.02637,-0.358444 0.05904,-0.529047 0.06356,-0.330551 0.151548,-0.714549 0.18457,-0.806937 0.06986,-0.195689 0.192347,-0.29188 0.357968,-0.282021 z m 0.927979,7.14309 c 0.02775,-0.004 0.05815,-0.003 0.113393,5.18e-4 0.104468,0.007 0.124403,0.01132 0.196784,0.05146 0.212094,0.115631 0.343681,0.380314 0.328478,0.660791 -0.0098,0.199056 -0.09131,0.375953 -0.227798,0.498674 -0.181366,0.163144 -0.3843,0.192831 -0.57764,0.08544 -0.255123,-0.141773 -0.387182,-0.483377 -0.306615,-0.793562 0.05717,-0.220645 0.194364,-0.392633 0.374755,-0.469863 0.04516,-0.01922 0.07085,-0.02907 0.09864,-0.03345 z m -14.633477,2.091469 c -0.133298,0.370993 -0.249869,0.742155 -0.349838,1.113148 -0.09996,0.370992 -0.216542,0.741646 -0.34983,1.112639 -0.166613,0.472173 -0.399755,0.725314 -0.699666,0.759074 -0.266587,0.03376 -0.483214,-0.06752 -0.64983,-0.303631 -0.133298,-0.236092 -0.116777,-0.573315 0.04979,-1.011768 0.19994,-0.404723 0.699734,-0.859926 1.499502,-1.36583 z"
       inkscape:label="marshal-logo" /><g
       id="g24"
       inkscape:label="neon-line-logo"
       style="display:none"><path
         id="path23"
         style="fill:none;fill-opacity:0.473684;stroke:#f14cff;stroke-width:2;stroke-linecap:round;stroke-linejoin:round;stroke-dasharray:none;stroke-opacity:0.624402"
         d="m 94.506335,11.448375 c 0,0 -1.903774,4.184292 -2.891968,6.763862 -1.453758,3.79487 -1.996573,5.528623 -1.06756,6.246016 0.929013,0.717393 3.075206,-0.501911 5.258125,-3.019438 2.182918,-2.517527 3.033215,-3.827413 3.033215,-3.827413 M 86.45634,11.448375 c 0,0 -1.852617,3.271013 -2.9352,6.079182 -1.085757,2.816401 -2.191145,6.047394 -0.64715,6.555357 1.543995,0.507963 3.461649,-0.681385 5.325092,-3.398217 1.863443,-2.716832 6.307253,-9.236322 6.307253,-9.236322 M 72.594009,5.0828553 c 0,0 -0.635465,1.213841 -1.373573,3.2305977 -0.738108,2.016757 -0.982073,3.16995 -0.982073,3.16995 0,0 1.737095,-1.296841 3.839291,-1.013388 2.102197,0.283453 3.188687,0.725867 4.222346,1.653508 1.033658,0.927641 1.77577,2.398616 1.51073,3.578046 -0.26504,1.17943 -1.457722,5.473085 -2.332357,8.375278 -0.874633,2.902194 -2.182332,2.119313 -3.51454,2.817246 -1.332208,0.697933 -0.706482,3.368771 -2.687406,3.066654 -1.980924,-0.302117 -1.007471,-2.626643 -1.596542,-3.640561 -0.589071,-1.013918 -1.759888,-2.016804 -1.759888,-2.016804 M 64.639134,14.218739 c 0,0 -2.18091,6.733675 -7.530314,9.822155 -3.218485,1.858193 -4.02258,-2.788829 -2.525701,-6.220699 0.958829,-2.198291 2.198291,-3.870396 3.566377,-4.992929 1.368086,-1.122532 2.864795,-1.695491 4.338118,-1.695491 2.946646,0 2.15152,3.086964 2.15152,3.086964 0,0 -5.519116,17.025068 -6.220698,19.270131 -0.701583,2.245067 -4.349811,2.10475 -4.490128,-0.04677 -0.140316,-2.15152 3.572923,-5.034695 7.144449,-3.858706 4.245859,1.112066 3.426061,9.518136 6.559797,9.751999 3.133735,0.233859 3.413101,-6.808822 3.413101,-6.808822 M 37.806263,24.437574 c 2.478926,-4.490128 7.207645,-13.911359 10.781457,-12.698796 3.414402,1.158477 -4.963786,10.904798 -2.437535,12.614201 2.553341,1.727734 9.822412,-9.088211 9.822412,-9.088211 M 41.627229,11.22532 37.745138,24.648932 m -7.998039,-6.361015 c 0,0 -0.258402,2.295559 2.712786,2.993419 5.352637,1.257205 9.167344,-10.056016 9.167344,-10.056016 M 30.084291,23.004225 c -1.074231,1.151763 -2.731694,1.786924 -4.196433,1.660351 -1.873936,-0.161933 -4.762249,-2.650911 -1.149109,-8.860695 2.697336,-4.635824 6.470199,-5.050321 8.089671,-3.642797 1.567582,1.362425 1.031451,4.640547 -0.06625,6.51607 M 8.0456994,18.923251 c 0,0 -3.7623756,1.142008 -3.9026921,3.433845 -0.1403165,2.291836 2.4789248,4.443356 7.5770907,4.256267 5.098167,-0.187089 7.317619,-2.947199 7.249686,-5.144939 C 18.832877,17.039299 7.7912364,13.049435 7.6509199,7.8109518 7.5106034,2.5724692 13.310352,1.2628485 17.613392,0.74835466 21.916431,0.23386083 25.471116,2.3386083 24.255039,5.6126599 23.038963,8.8867116 16.631176,9.6350663 16.631176,9.6350663"
         sodipodi:nodetypes="csssccszzcczczsssszzccszssssccsssscsssscccsssccsccsssc" /><path
         d="m 69.221752,14.512627 c 0,0 0.253757,-0.879117 1.561389,-0.91477 1.307632,-0.03565 2.4959,0.176284 3.519867,0.466542 1.023968,0.290259 1.627615,0.794757 1.627615,0.794757 m -7.537171,2.106018 c 0,0 0.253757,-0.879117 1.561389,-0.91477 1.307632,-0.03565 2.4959,0.176284 3.519867,0.466542 1.023968,0.290259 1.729016,0.828558 1.729016,0.828558 m -7.471945,2.187971 c 0,0 0.253757,-0.879117 1.561389,-0.91477 1.307632,-0.03565 2.4959,0.176284 3.519867,0.466542 1.023968,0.290259 1.75155,0.777857 1.75155,0.777857 m -7.41939,2.417352 c 0.166344,-0.855152 0.819404,-1.237625 1.656991,-1.177676 0.837587,0.05995 2.384364,0.168317 3.408331,0.458575 1.023968,0.290259 1.757183,0.794757 1.757183,0.794757"
         style="fill:none;fill-opacity:0.473684;stroke:#f14cff;stroke-width:1.2;stroke-linecap:round;stroke-linejoin:round;stroke-dasharray:none;stroke-opacity:0.624402"
         id="path1"
         sodipodi:nodetypes="cssccssccssccssc" /></g><g
       id="g29"
       inkscape:label="neon-line-logo"
       style="display:inline"
       transform="scale(1.0341149,0.98350331)"><path
         style="color:#000000;fill:#ff7cfc;fill-opacity:1;stroke-linecap:round;stroke-linejoin:round;-inkscape-stroke:none"
         d="M 14.356512,0.08709695 C 9.6495291,0.5760916 3.7146163,2.2099912 3.5127617,8.1691282 c 0.081197,3.0313458 2.9617996,5.4604488 6.0410154,7.8906258 1.6289189,1.603598 5.0135559,3.094137 5.2792969,5.771484 0.04635,1.499607 -1.538518,3.939021 -6.2871089,4.113281 C 4.3313428,26.09918 1.8944216,24.52259 2.0029961,22.749207 2.0697867,21.658292 3.9046886,20.623274 5.1983086,20.212097 5.7269761,20.051512 6.025226,19.492621 5.8643242,18.96405 5.703716,18.436384 5.1461909,18.138397 4.6182305,18.298035 3.9993334,18.48918 0.18116783,19.781775 0.00690235,22.628113 -0.1519048,25.221953 2.4544932,28.170713 8.6182301,27.944519 14.065963,27.744602 16.920633,24.664607 16.831121,21.768738 16.438571,18.414766 13.154762,16.348963 10.794012,14.489441 8.2108396,12.450752 5.57043,10.26739 5.5127617,8.1144407 5.4554582,5.9751104 6.2519466,3.0709393 14.594793,2.0734251 c 2.701284,-0.3229795 6.674999,0.5893993 5.585937,3.5214844 -0.699445,1.883125 -4.356598,3.0657193 -6.802734,3.3789062 -0.548492,0.064213 -0.9411,0.5608755 -0.876953,1.1093753 0.06421,0.548492 0.560876,0.9411 1.109375,0.876953 1.138853,-0.140714 7.099313,-1.0441221 8.445312,-4.6679689 1.309722,-3.526171 -1.981872,-6.88867387 -7.699218,-6.20507815 z M 68.571355,4.9503782 c -0.925819,1.8003102 -2.070707,4.9568362 -2.449218,6.6582038 -0.189578,0.901556 0.837373,1.558194 1.576171,1.007812 2.295009,-1.54806 5.365914,-0.702163 6.796875,0.582032 0.819635,0.735569 1.34162,1.998934 1.203125,2.615234 -0.238163,1.059829 -1.445974,5.424875 -2.314453,8.30664 -0.3698,1.876791 -1.66353,1.563345 -3.021484,2.21875 -0.911608,0.478469 -1.270567,1.454665 -1.504628,2.427309 -0.08916,0.358126 -0.223976,0.577396 -0.567638,0.537576 -0.392788,-0.03634 -0.420299,-0.304109 -0.476562,-0.669922 -0.06105,-0.584416 0.175237,-1.483511 -0.40625,-2.484375 -0.734315,-1.263914 -1.97461,-2.27539 -1.97461,-2.27539 -0.419584,-0.359272 -1.050989,-0.310299 -1.410156,0.109375 -0.359272,0.419584 -0.310299,1.050989 0.109375,1.410156 0,0 1.236607,1.030254 1.544922,1.759766 0.312545,0.739519 -0.171497,2.016898 0.644531,3.164062 0.351572,0.494235 0.969773,0.856704 1.666016,0.962891 0.704568,0.107456 1.43664,-0.08751 1.892578,-0.501953 0.657381,-0.600782 0.824089,-1.509926 1.150391,-2.316407 0.392285,-0.713207 1.435841,-0.631719 2.113281,-0.896484 0.862005,-0.363655 1.670082,-1.262425 2.154297,-2.869141 0.880789,-2.922614 2.059646,-7.146284 2.351562,-8.445312 C 78.041066,14.508643 77.0788,12.829896 75.831121,11.710185 74.655848,10.655414 73.266844,10.105522 71.073308,9.8097532 70.175492,9.6886947 69.397301,9.8265082 68.700262,10.020691 69.246785,8.255641 69.766079,6.9958009 70.34284,5.8781126 70.598941,5.388923 70.41008,4.7847451 69.920965,4.5285032 69.432617,4.2725786 68.826883,4.4621182 68.571355,4.9503782 Z M 54.377996,12.739016 c -2.011229,1.65024 -2.934594,3.529071 -6.255861,7.396905 -1.042866,1.214486 -2.222518,2.496046 -3.150286,3.183516 -1.923354,1.42519 -1.565322,0.191519 -1.269534,-0.728517 0.337583,-1.050057 1.322226,-2.815398 2.001478,-4.21969 1.186921,-2.453848 2.123983,-4.51044 1.72461,-5.992188 -0.173708,-0.644488 -0.730246,-1.258849 -1.417969,-1.492187 -3.784959,-0.6983 -6.375677,3.572681 -8.165645,6.495159 l 1.605469,-5.311481 c 0.153268,-0.530722 -0.152823,-1.085183 -0.683594,-1.238281 -0.530138,-0.153411 -1.084333,0.151658 -1.238281,0.681641 -0.429904,1.483548 -2.593801,6.250637 -5.138672,8.276324 -2.670414,2.125618 -4.893657,0.09166 -4.78711,-1.058593 0.06173,-0.548426 -0.332496,-1.04318 -0.880859,-1.105469 -0.548426,-0.06173 -1.04318,0.332496 -1.105469,0.880859 -0.113012,1.270387 0.615323,3.406091 3.476563,4.078125 2.749184,0.645716 4.748313,-1.140858 6.046875,-3.044922 l -1.492188,5.16211 c -0.153411,0.530138 0.151658,1.084333 0.681641,1.238281 0.530722,0.153268 1.085183,-0.152823 1.799708,-1.597663 0.714525,-1.44484 2.7179,-5.069682 4.578827,-7.723665 2.913479,-4.155092 6.612312,-6.120636 3.197264,0.88086 -0.677189,1.388365 -1.688874,3.185109 -2.104993,4.479456 -1.174221,3.65243 1.274887,5.235743 4.363281,2.947266 1.279035,-0.947757 2.379537,-2.208724 3.624895,-3.683516 -0.100678,1.686507 0.224259,3.744128 1.791633,4.559879 1.986883,0.897661 4.636073,-1.577462 6.333367,-3.393863 -0.931591,2.878359 -1.246788,3.861458 -2.05664,6.375 -1.252769,0.07345 -2.446858,0.363535 -3.41211,0.962891 -1.569251,0.974397 -2.76167,2.415453 -2.652344,4.091796 0.05335,0.81799 0.484627,1.530727 1.058594,1.962891 0.573968,0.432164 1.262063,0.626737 1.951172,0.642578 1.378218,0.03168 2.933843,-0.726967 3.433594,-2.326172 0.116663,-0.37332 0.712376,-2.200011 1.058594,-3.277343 0.945298,-0.0061 1.667311,0.767155 2.16016,1.548833 1.058334,1.762904 1.468135,4.45075 2.40039,6.267578 0.500361,0.975128 1.336382,1.914066 2.566407,2.005859 1.155987,0.08627 2.138937,-0.567732 2.732422,-1.365234 0.593484,-0.797502 0.940177,-1.756302 1.189453,-2.691406 0.498551,-1.87021 0.564453,-3.708985 0.564453,-3.708985 0.02201,-0.551709 -0.407283,-1.016855 -0.958985,-1.039062 -0.551709,-0.02201 -1.016854,0.407283 -1.039062,0.958984 0,0 -0.07348,1.682728 -0.498047,3.275391 -0.297406,1.115656 -0.88245,2.647764 -1.841797,2.576172 -1.78434,-0.641169 -1.56304,-4.2448 -3.402344,-7.308594 -0.72412,-1.142098 -1.870625,-2.357952 -3.259765,-2.421878 1.858111,-5.763149 4.589942,-14.136427 4.589942,-14.136427 0.161957,-0.759915 0.212251,-2.300154 -0.919987,-3.264383 -1.40617,-1.197515 -4.536469,-0.98368 -7.19925,1.201165 z M 20.73937,15.642528 c -1.894027,3.255201 -2.200707,5.732652 -1.562546,7.526601 0.638162,1.793948 2.157395,2.707259 3.488281,2.822265 1.815084,0.156848 3.714575,-0.581751 5.013672,-1.974609 0.37545,-0.404141 0.352729,-1.03598 -0.05078,-1.41211 -0.403614,-0.375961 -1.03543,-0.354113 -1.412109,0.04883 -0.849363,0.910665 -2.264516,1.442001 -3.378907,1.345703 -0.543048,-0.04693 -1.406151,-0.456533 -1.777343,-1.5 -0.371193,-1.043468 -0.310861,-2.896242 1.408249,-5.850819 2.506513,-4.307865 5.602662,-4.229937 6.568359,-3.390625 1.037293,0.901537 0.681556,3.61024 -0.275437,5.24535 -0.279387,0.477241 -0.118382,1.090636 0.359375,1.369141 0.47681,0.278056 1.088739,0.117206 1.367188,-0.359375 1.242003,-2.122079 1.947333,-5.951922 -0.138626,-7.764882 -2.068579,-1.7978526 -6.549995,-1.363528 -9.609376,3.89453 z m 61.688949,-4.339401 c 0,0 -2.11156,3.731553 -3.238125,6.65381 -0.548075,1.421678 -1.116474,2.958879 -1.361329,4.326172 -0.193906,1.082794 -0.286519,3.005929 1.333981,3.539062 1.108828,0.364797 2.31755,0.08398 3.390625,-0.595703 1.755238,-1.118611 3.162483,-3.396942 4.346005,-5.106171 -0.298251,0.850708 -0.700761,1.861163 -0.830078,2.501954 -0.256907,1.115128 -0.117855,2.181935 0.728515,2.958984 1.046051,0.807772 2.433098,0.257011 3.267578,-0.220703 2.613029,-1.690255 4.703308,-4.266468 6.474609,-6.873047 0.300287,-0.463315 0.168269,-1.082324 -0.294917,-1.38281 -0.462809,-0.300658 -1.081691,-0.169539 -1.382812,0.292969 -1.712867,2.232551 -3.379956,4.761235 -5.791016,6.226563 -1.31302,0.751663 -1.198578,0.175312 -1.041011,-0.605468 0.173321,-0.858843 0.657307,-2.228435 1.380859,-4.117188 0.48197,-1.258127 2.258176,-5.168691 2.714542,-6.076143 0.456365,-0.907452 0.345295,-1.531021 -0.107852,-1.84701 -0.45302,-0.31617 -1.076589,-0.2051 -1.392578,0.248047 0,0 -4.777392,6.954436 -6.647968,9.681668 -0.879717,1.282594 -1.75653,2.161703 -2.494141,2.628906 -1.409572,0.801121 -1.919687,0.653955 -1.685552,-0.900391 0.19328,-1.079292 0.722085,-2.566217 1.259766,-3.960937 1.038599,-2.694076 3.111173,-6.386232 3.111173,-6.386232 0.27246,-0.480541 0.103673,-1.090972 -0.37693,-1.363359 -0.480603,-0.272387 -1.091035,-0.1036 -1.363344,0.377027 z m -21.896022,3.326511 c -0.0215,0.06336 -2.195631,6.284719 -7.077508,9.103272 -0.707234,0.408322 -1.244657,0.527306 -1.576172,-0.554687 -0.31213,-1.018724 -0.17232,-3.122105 0.483758,-4.626285 0.906863,-2.079149 2.062611,-3.266492 3.283203,-4.268004 1.220592,-1.001511 2.491016,-1.46875 3.64903,-1.49621 1.158015,-0.02746 1.385338,0.823691 1.237689,1.841914 z m -5.326176,16.168397 c -0.263581,0.821642 -0.777505,2.400124 -0.878906,2.724609 -0.389718,1.2471 -2.474339,1.177976 -2.539063,0.185547 -0.03099,-0.475174 0.56577,-1.550648 1.710938,-2.261719 0.502947,-0.312295 1.09625,-0.515138 1.707031,-0.648437 z"
         id="path28"
         sodipodi:nodetypes="sssssscccssssssscccsscccssssscsscccassssssscsccccsssssssccccscccsccccsssscsccssssscssssscccsssccssssscccsssscccsscsssscssscccssscccssssccccsssscccsssc" /><path
         style="color:#000000;fill:#ff7cfc;fill-opacity:1;stroke-linecap:round;stroke-linejoin:round;-inkscape-stroke:none"
         d="m 67.629949,13.329285 c -1.305653,0.0356 -1.939652,0.796596 -2.123047,1.347656 -0.09272,0.318805 0.0911,0.652298 0.410156,0.744141 0.318805,0.09272 0.652298,-0.0911 0.744141,-0.410156 0,0 0.0075,-0.05784 0.134766,-0.183594 0.127249,-0.125759 0.344671,-0.284635 0.865234,-0.298828 1.722766,-0.04697 3.853063,0.400219 4.746094,1.123047 0.254493,0.212742 0.63332,0.178622 0.845703,-0.07617 0.212742,-0.254493 0.178622,-0.63332 -0.07617,-0.845703 -1.273764,-1.022036 -3.73747,-1.44972 -5.546875,-1.400391 z m -0.828125,2.453125 c -1.308085,0.03567 -1.939619,0.793749 -2.123047,1.347656 -0.09146,0.318185 0.09209,0.650319 0.410156,0.742188 0.318805,0.09272 0.652299,-0.0911 0.744141,-0.410157 0,0 0.0075,-0.05784 0.134766,-0.183593 0.127249,-0.125759 0.344671,-0.282682 0.865234,-0.296875 1.502483,-0.04096 3.670802,0.292808 4.869141,1.171875 0.263315,0.200194 0.63898,0.149523 0.839843,-0.113282 0.200629,-0.262804 0.150842,-0.638387 -0.111328,-0.839843 -1.443604,-1.075812 -3.888956,-1.465405 -5.628906,-1.417969 z m -0.662109,2.568359 c -1.303753,0.03555 -1.939006,0.789434 -2.121094,1.347656 -0.0916,0.317602 0.09092,0.649471 0.408203,0.742188 0.318805,0.09272 0.652298,-0.0911 0.744141,-0.410156 0,0 0.0075,-0.05784 0.134765,-0.183594 0.127249,-0.125759 0.344672,-0.282682 0.865235,-0.296875 1.775186,-0.0484 3.781363,0.404193 4.921875,1.142578 0.275103,0.184257 0.647465,0.110834 0.832031,-0.164062 0.184258,-0.275103 0.110834,-0.647466 -0.164063,-0.832032 -1.332316,-0.873478 -3.579287,-1.401368 -5.621093,-1.345703 z m -0.431641,2.484375 c -1.265744,-0.09058 -2.089382,0.635572 -2.289062,1.66211 -0.06302,0.325204 0.149436,0.639947 0.474609,0.703125 0.325205,0.06302 0.639947,-0.149437 0.703125,-0.47461 0.114244,-0.567191 0.528746,-0.690394 1.025391,-0.693359 2.162436,0.154777 3.629624,0.327346 4.867187,1.148437 0.27331,0.188865 0.648061,0.119693 0.835938,-0.154297 0.187529,-0.272941 0.118471,-0.646204 -0.154297,-0.833984 -1.630301,-1.084343 -3.588739,-1.224212 -5.462891,-1.357422 z"
         id="path29"
         sodipodi:nodetypes="sccccscccsssccccscccssccccscccsscccscccs" /></g></g></svg>
